<svg xmlns="http://www.w3.org/2000/svg" viewBox="0 0 512 512" width="20" height="15"><g fill="#999"><path d="M472 60h-8V44c0-13.234-10.766-24-24-24s-24 10.766-24 24v16H96V44c0-13.234-10.766-24-24-24S48 30.766 48 44v16h-8C17.944 60 0 77.944 0 100v352c0 22.056 17.944 40 40 40h432c22.056 0 40-17.944 40-40V100c0-22.056-17.944-40-40-40zm-40-16c0-4.41 3.59-8 8-8s8 3.59 8 8v48c0 4.41-3.59 8-8 8s-8-3.59-8-8V44zM72 36c4.41 0 8 3.59 8 8v48c0 4.41-3.59 8-8 8s-8-3.59-8-8V68.01 68 44c0-4.41 3.59-8 8-8zm400 440H40c-13.234 0-24-10.766-24-24V148h384a8 8 0 0 0 0-16H16v-32c0-13.234 10.766-24 24-24h8v16c0 13.234 10.766 24 24 24s24-10.766 24-24V76h320v16c0 13.234 10.766 24 24 24s24-10.766 24-24V76h8c13.234 0 24 10.766 24 24v32h-16a8 8 0 0 0 0 16h16v304c0 13.234-10.766 24-24 24z"/><path d="M448 132h-16a8 8 0 0 0 0 16h16a8 8 0 0 0 0-16zM201.546 253.764l44.103-44.103a8.1 8.1 0 0 0 .534-.59c.072-.087.133-.18.2-.268.09-.12.183-.236.266-.36.074-.11.138-.226.206-.34.066-.11.135-.217.196-.33.063-.12.117-.24.174-.362.055-.115.112-.23.16-.347s.09-.24.133-.36c.044-.126.092-.25.13-.38.038-.12.065-.244.096-.367.033-.13.07-.258.095-.39.03-.145.047-.29.067-.436.016-.113.038-.224.05-.338a8.03 8.03 0 0 0 0-1.58c-.012-.115-.034-.226-.05-.34-.02-.144-.038-.29-.066-.434-.025-.132-.062-.26-.094-.39-.03-.124-.058-.248-.095-.37-.038-.127-.086-.25-.13-.377-.044-.12-.084-.24-.133-.36s-.107-.232-.16-.347c-.058-.12-.112-.243-.175-.36-.06-.115-.13-.223-.196-.333-.068-.113-.132-.228-.206-.338-.083-.124-.175-.24-.265-.36-.067-.09-.13-.182-.2-.27a7.996 7.996 0 0 0-1.12-1.118c-.084-.07-.172-.128-.258-.193-.123-.092-.243-.186-.37-.272-.108-.072-.22-.133-.33-.2-.113-.067-.224-.14-.342-.202-.114-.06-.23-.112-.346-.167-.122-.058-.24-.12-.365-.17-.112-.046-.226-.083-.34-.124-.132-.048-.263-.1-.4-.14-.112-.034-.226-.06-.34-.088-.14-.035-.276-.074-.418-.102-.13-.026-.26-.04-.392-.06-.127-.02-.253-.043-.382-.055a7.748 7.748 0 0 0-.698-.034c-.03 0-.06-.004-.09-.004H152a8 8 0 0 0 0 16h68.683l-42.343 42.343a8.1 8.1 0 0 0-.535.59c-.072.088-.133.18-.2.27-.09.118-.183.235-.266.36-.075.11-.14.225-.207.338-.066.11-.135.218-.196.332-.063.118-.116.24-.173.36-.055.115-.113.23-.162.35-.05.117-.088.237-.13.357-.046.126-.095.25-.134.38-.037.122-.064.245-.095.368-.033.13-.07.258-.095.39-.03.145-.046.29-.066.436-.016.113-.038.224-.05.338a8.03 8.03 0 0 0 0 1.58c.012.115.034.226.05.34.02.144.038.29.066.434.026.132.063.26.095.39.03.124.058.248.095.37.04.128.088.253.133.38.044.12.083.24.132.357.05.12.107.233.162.35.057.12.11.24.173.36.06.113.13.22.196.33.068.114.132.23.206.34.082.123.174.24.264.36.067.09.13.18.2.268.336.41.71.784 1.12 1.12.084.068.172.127.258.192.123.093.243.187.37.273.11.072.22.134.33.2.114.068.225.14.342.2.115.063.234.115.35.17.12.056.237.115.36.166.114.047.23.085.347.127.13.048.26.098.392.138.117.035.236.06.354.09.134.035.267.073.404.1.14.028.28.044.42.064.117.017.233.04.353.05a8 8 0 0 0 .79.04c39.7 0 72 32.3 72 72s-32.3 72-72 72c-18.96 0-36.857-7.306-50.395-20.574a8 8 0 0 0-11.313.114 8 8 0 0 0 .114 11.313c16.545 16.217 38.42 25.148 61.592 25.148 48.523 0 88-39.477 88-88 0-42.514-30.304-78.08-70.446-86.24zM351.96 203.213c-.01-.114-.033-.225-.05-.338-.02-.145-.037-.29-.065-.435-.026-.132-.063-.26-.095-.39-.03-.124-.058-.248-.095-.37-.04-.127-.087-.25-.132-.377-.043-.12-.083-.242-.132-.36s-.106-.233-.16-.348c-.057-.12-.11-.243-.174-.36-.06-.115-.13-.223-.196-.333-.068-.113-.132-.228-.206-.338-.083-.124-.175-.24-.265-.36-.068-.09-.13-.182-.202-.27a7.996 7.996 0 0 0-1.12-1.118c-.083-.07-.17-.128-.257-.193-.122-.093-.242-.187-.37-.273-.107-.072-.22-.133-.328-.2-.114-.067-.225-.14-.343-.202-.115-.06-.23-.112-.347-.167-.12-.056-.24-.117-.364-.168-.113-.046-.227-.083-.34-.124-.133-.048-.264-.1-.4-.14-.113-.034-.227-.06-.34-.088-.14-.035-.277-.074-.42-.102-.13-.026-.26-.04-.39-.06-.128-.02-.254-.043-.383-.055a7.748 7.748 0 0 0-.698-.035c-.03 0-.06-.004-.09-.004s-.06.004-.09.004a8.134 8.134 0 0 0-.697.035c-.13.012-.255.036-.382.055-.13.02-.26.034-.39.06-.142.028-.28.066-.42.102-.113.03-.227.054-.34.088-.136.04-.267.092-.4.14-.113.04-.228.078-.34.124-.123.05-.242.112-.363.17-.116.054-.232.105-.346.166-.116.063-.228.134-.342.203-.11.067-.22.13-.328.2-.128.086-.25.18-.37.273-.087.065-.175.124-.26.193-.205.17-.403.347-.59.535l-39.997 39.997a7.998 7.998 0 0 0 0 11.313c1.562 1.562 3.61 2.343 5.657 2.343s4.095-.78 5.657-2.343L336 223.317v196.687a8 8 0 0 0 16 0V204.006c0-.265-.014-.53-.04-.793z"/></g></svg>